<svg fill="none" height="244" viewBox="0 0 183 244" width="183" xmlns="http://www.w3.org/2000/svg"><path d="m91.5997 243.68c35.0133 0 63.3963-2.423 63.3963-5.412s-28.383-5.413-63.3963-5.413c-35.0129 0-63.3966 2.424-63.3966 5.413s28.3837 5.412 63.3966 5.412z" fill="#45413c" opacity=".15"/><path d="m181.527 82.5753c0-7.9596-6.378-14.6456-14.67-14.6456h-150.2031c-7.97257 0-14.66952 6.3676-14.66952 14.6456v99.6537h179.54262z" fill="#00b8f0"/><path d="m121.892 68.25h-105.2381c-7.97257 0-14.66952 6.3677-14.66952 14.6456v99.6534h5.74025z" fill="#4acfff"/><path d="m113.608 225.529h-43.69l2.8701-21.65h37.9499z" fill="#daedf7"/><path d="m111.686 212.157h-40.1821l1.2756-8.278h37.9495z" fill="#c0dceb"/><g stroke="#211d3d" stroke-linecap="round"><path d="m113.608 225.529h-43.69l2.8701-21.65h37.9499z" stroke-linejoin="round" stroke-miterlimit="10" stroke-width="2.5"/><path d="m122.851 236.677h-62.186c-2.5512 0-4.1458-2.547-3.1891-4.776 1.9135-3.502 5.4214-6.049 9.886-6.049h49.1111c4.465 0 7.973 2.547 9.886 6.049.638 2.229-.957 4.776-3.508 4.776z" fill="#e8f4fa" stroke-linejoin="round" stroke-miterlimit="10" stroke-width="2.5"/><path d="m166.857 203.88c7.973 0 14.67-6.367 14.67-14.645v-7.005h-179.54262v7.005c0 7.959 6.37805 14.645 14.66952 14.645z" fill="#fff" stroke-linejoin="round" stroke-miterlimit="10" stroke-width="2.5"/><path d="m181.527 82.5753c0-7.9596-6.378-14.6456-14.67-14.6456h-150.2031c-7.97257 0-14.66952 6.3676-14.66952 14.6456v99.6537h179.54262z" stroke-linejoin="round" stroke-miterlimit="10" stroke-width="2.5"/></g><path d="m91.5939 196.555c1.9373 0 3.5079-1.568 3.5079-3.502s-1.5706-3.502-3.5079-3.502c-1.9374 0-3.508 1.568-3.508 3.502s1.5706 3.502 3.508 3.502z" fill="#211d3d"/><path d="m140.387 75.573c-4.464-.9551-6.697-6.3676-8.291-11.7801v-13.3721c0-21.0133-17.221-38.206-38.2686-38.206s-38.2683 17.1927-38.2683 38.206v13.0537c-1.5945 5.7309-3.8268 10.825-8.2915 11.7802-7.9726 1.9103-3.8268 12.7353.9567 18.1478 4.4647 5.0941 11.4805 7.3225 18.1775 7.3225 9.2482 5.094 18.4964 7.641 27.4256 7.96 8.9296-.319 17.8586-2.866 27.4256-7.96 6.697 0 13.394-2.5468 18.178-7.3225 4.783-5.0941 8.929-15.9192.956-17.8295z" style="fill:#ffdf3d;stroke:#211d3d;stroke-width:2.5;stroke-miterlimit:10;stroke-linecap:round;stroke-linejoin:round"/><path d="m93.8231 102.008c27.4259.318 50.0679 22.287 50.0679 50.304v29.928h-99.8168v-29.928c0-28.017 22.6421-50.304 49.7489-50.304z" fill="#ff866e"/><path d="m93.8295 102.008c-27.4257.318-50.0678 22.287-50.0678 50.304v14.328c0-28.018 22.6421-49.987 50.0678-50.305 27.4255.318 50.0675 22.287 50.0675 50.305v-14.328c0-28.017-22.642-50.304-50.0675-50.304z" fill="#ffa694"/><path d="m63.5374 182.241v-15.282c-2.2323-4.776-1.9134-14.328 0-20.377" stroke="#211d3d" stroke-linecap="round" stroke-linejoin="round" stroke-miterlimit="10" stroke-width="2.5"/><path d="m124.441 182.241v-15.282c2.233-4.776 1.914-14.328 0-20.377" stroke="#211d3d" stroke-linecap="round" stroke-linejoin="round" stroke-miterlimit="10" stroke-width="2.5"/><path d="m93.8231 102.008c27.4259.318 50.0679 22.287 50.0679 50.304v29.928h-99.8168v-29.928c0-28.017 22.6421-50.304 49.7489-50.304z" stroke="#211d3d" stroke-linecap="round" stroke-linejoin="round" stroke-miterlimit="10" stroke-width="2.5"/><path d="m94.1448 118.873c3.508 14.327 25.1932 11.78 24.8742-2.547 0-.637 0-1.274 0-1.91-2.551-18.1481-46.5596-20.3768-49.4297 0v1.91c-.9567 14.646 20.7287 16.874 24.5555 2.547v-.318z" fill="#ff6242"/><path d="m94.1448 118.873c3.508 14.327 25.1932 11.78 24.8742-2.547 0-.637 0-1.274 0-1.91-2.551-18.1481-46.5596-20.3768-49.4297 0v1.91c-.9567 14.646 20.7287 16.874 24.5555 2.547zm0 0v-.318z" stroke="#211d3d" stroke-linecap="round" stroke-linejoin="round" stroke-miterlimit="10" stroke-width="2.5"/><path d="m82.6641 93.4082v3.8206c0 8.2782 4.1457 16.2372 11.1616 21.0132 7.0163-4.776 11.1613-12.417 11.1613-21.0132v-4.139h-22.3229z" style="fill:#ffcebf;stroke:#45413c;stroke-width:2.5;stroke-miterlimit:10;stroke-linecap:round;stroke-linejoin:round"/><path d="m82.6641 93.4023v9.8697c7.6536 1.911 14.0317 2.229 22.6419 0v-9.8697z" fill="#ffb59e"/><path d="m82.6641 93.4082v3.8206c0 8.2782 4.1457 16.2372 11.1616 21.0132 7.0163-4.776 11.1613-12.417 11.1613-21.0132v-4.139h-22.3229z" stroke="#211d3d" stroke-linecap="round" stroke-linejoin="round" stroke-miterlimit="10" stroke-width="2.5"/><path d="m125.717 59.665v-7.9595c0-17.5111-14.35-31.8383-31.8901-31.8383-17.5396 0-31.8903 14.3272-31.8903 31.8383v7.9595c-3.5079 0-6.378 2.8655-6.378 6.3677s2.8701 6.3677 6.378 6.3677h.319c2.2323 15.2823 15.6262 27.0625 31.5713 27.0625s29.3391-11.7802 31.5711-27.0625h.319c3.508 0 6.378-2.8655 6.378-6.3677s-2.87-6.3677-6.378-6.3677z" style="fill:#ffcebf;stroke:#211d3d;stroke-width:2.5;stroke-miterlimit:10;stroke-linecap:round;stroke-linejoin:round"/><path d="m75.6472 77.1802c2.1135 0 3.8268-1.7105 3.8268-3.8205 0-2.1101-1.7133-3.8206-3.8268-3.8206-2.1136 0-3.8269 1.7105-3.8269 3.8206 0 2.11 1.7133 3.8205 3.8269 3.8205z" fill="#ffb59e"/><path d="m112.327 77.1802c2.113 0 3.827-1.7105 3.827-3.8205 0-2.1101-1.714-3.8206-3.827-3.8206-2.114 0-3.827 1.7105-3.827 3.8206 0 2.11 1.713 3.8205 3.827 3.8205z" fill="#ffb59e"/><path d="m103.4 81.3164c-2.87 2.5471-6.3783 3.8206-9.5673 3.8206s-6.697-1.2735-9.5671-3.8206" stroke="#211d3d" stroke-linecap="round" stroke-linejoin="round" stroke-miterlimit="10" stroke-width="2.5"/><path d="m85.8561 62.8479c-.9567-1.9103-2.5512-3.1838-4.7835-3.1838s-3.8268 1.2735-4.7835 3.1838" stroke="#211d3d" stroke-linecap="round" stroke-linejoin="round" stroke-miterlimit="10" stroke-width="2.5"/><path d="m111.368 62.8479c-.957-1.9103-2.551-3.1838-4.784-3.1838-2.232 0-3.827 1.2735-4.783 3.1838" stroke="#211d3d" stroke-linecap="round" stroke-linejoin="round" stroke-miterlimit="10" stroke-width="2.5"/><path d="m93.8269 11.9062c-21.0476 0-38.2683 17.1927-38.2683 38.206v15.6008c0-3.1839 2.5512-5.7309 5.7402-5.7309 9.5671 1.5919 15.6263-8.5964 18.1775-24.5155 11.7994 11.1434 43.6897 25.1522 46.8787 24.5155 3.189 0 5.74 2.547 5.74 5.7309v-15.6008c0-21.0133-16.902-38.206-38.2681-38.206z" fill="#ffdf3d"/><path d="m93.8269 11.9062c-21.0476 0-38.2683 17.1927-38.2683 38.206v11.1434c0-21.0133 17.2207-38.2059 38.2683-38.2059 21.0481 0 38.2681 17.1926 38.2681 38.2059v-11.1434c0-21.0133-16.902-38.206-38.2681-38.206z" fill="#ffef9e"/><g stroke-linejoin="round" stroke-miterlimit="10" stroke-width="2.5"><g stroke="#211d3d" stroke-linecap="round"><path d="m93.8269 11.9062c-21.0476 0-38.2683 17.1927-38.2683 38.206v15.6008c0-3.1839 2.5512-5.7309 5.7402-5.7309 9.5671 1.5919 15.6263-8.5964 18.1775-24.5155 11.7994 11.1434 43.6897 25.1522 46.8787 24.5155 3.189 0 5.74 2.547 5.74 5.7309v-15.6008c0-21.0133-16.902-38.206-38.2681-38.206z"/><path d="m63.2116 72.3942c0 1.9103-1.5945 3.1839-3.189 3.1839h-4.7836c-.9567 0-1.5945-.6368-1.5945-1.5919v-22.6052c0-.9552.6378-1.5919 1.5945-1.5919h4.7836c1.9134 0 3.189 1.5919 3.189 3.1838z" fill="#656769"/><path d="m47.2632 72.394h6.3781v-19.4213h-6.3781c-1.9134 0-3.189 1.5919-3.189 3.1838v12.7353c0 1.9103 1.2756 3.5022 3.189 3.5022z" fill="#fff"/><path d="m127.951 75.5781h4.783c.957 0 1.595-.6368 1.595-1.5919v-22.6052c0-.9552-.638-1.5919-1.595-1.5919h-4.783c-1.914 0-3.189 1.5919-3.189 3.1838v19.4213c0 1.592 1.275 3.1839 3.189 3.1839z" fill="#656769"/><path d="m143.899 68.8938c0 1.9103-1.594 3.1838-3.189 3.1838h-6.378v-19.4214h6.378c1.914 0 3.189 1.592 3.189 3.1839z" fill="#fff"/><path d="m137.518 52.9726c0-24.1971-19.454-43.6185-43.6902-43.6185-23.9177 0-43.3708 19.4214-43.3708 43.6185v-7.9596c0-23.8787 19.4531-43.61847 43.6897-43.61847 23.9173 0 43.6893 19.42137 43.6893 43.61847v7.9596z" fill="#bdbec0"/><path d="m79.4811 94.6802h-6.378c-1.9134 0-3.189-1.592-3.189-3.1839 0-1.9103 1.5945-3.1838 3.189-3.1838h6.378c1.9135 0 3.1891 1.5919 3.1891 3.1838 0 1.9103-1.5945 3.1839-3.1891 3.1839z" fill="#656769"/><path d="m69.9115 91.5014h-6.3781c-7.0158 0-12.7561-5.7309-12.7561-12.7353v-6.3677"/><path d="m105.306 171.732c0 1.91-1.275 3.184-3.189 3.184h-16.2639c-1.9134 0-3.189-1.274-3.189-3.184v-19.74c0-1.91 1.2756-3.183 3.189-3.183h16.2639c1.914 0 3.189 1.273 3.189 3.183z" fill="#fff"/></g><path d="m98.9329 155.176h-9.886v13.372h9.886z" fill="#4acfff" stroke="#009fd9"/><path d="m84.5742 129.383 9.2482 19.421 10.5236-20.695" stroke="#211d3d" stroke-linecap="round"/></g></svg>