<svg fill="none" height="221" viewBox="0 0 304 221" width="304" xmlns="http://www.w3.org/2000/svg"><path d="m302.437 148.047h-300.37841v9.562h300.37841z" style="fill:#bf8256;stroke:#211d3d;stroke-width:2.5;stroke-miterlimit:10;stroke-linecap:round;stroke-linejoin:round"/><path d="m296.501 157.605h-144.419v26.708h144.419z" fill="#f7e5c6"/><path d="m296.501 157.605h-144.419v7.584h144.419z" fill="#f0d5a8"/><path d="m296.501 157.605h-144.419v26.708h144.419z" stroke="#211d3d" stroke-linecap="round" stroke-linejoin="round" stroke-miterlimit="10" stroke-width="2.5"/><path d="m152.083 157.605h-144.41894v26.708h144.41894z" fill="#f7e5c6"/><path d="m152.083 157.605h-144.41894v7.584h144.41894z" fill="#f0d5a8"/><path d="m152.083 157.605h-144.41894v26.708h144.41894z" stroke="#211d3d" stroke-linecap="round" stroke-linejoin="round" stroke-miterlimit="10" stroke-width="2.5"/><path d="m75.9137 174.749c2.1852 0 3.9567-1.771 3.9567-3.956 0-2.186-1.7715-3.957-3.9567-3.957s-3.9567 1.771-3.9567 3.957c0 2.185 1.7715 3.956 3.9567 3.956z" style="fill:#f7e5c6;stroke:#211d3d;stroke-width:2.5;stroke-miterlimit:10;stroke-linecap:round;stroke-linejoin:round"/><path d="m228.578 174.749c2.185 0 3.956-1.771 3.956-3.956 0-2.186-1.771-3.957-3.956-3.957s-3.957 1.771-3.957 3.957c0 2.185 1.772 3.956 3.957 3.956z" style="fill:#f7e5c6;stroke:#211d3d;stroke-width:2.5;stroke-miterlimit:10;stroke-linecap:round;stroke-linejoin:round"/><path d="m276.383 69.906h-30.664v-36.9291c0-1.9783 1.319-3.2972 3.297-3.2972h24.07c1.978 0 3.297 1.3189 3.297 3.2972z" fill="#87898c"/><path d="m273.086 29.6797h-24.07c-1.978 0-3.297 1.3189-3.297 3.2972v8.2431c0-1.9783 1.648-3.9567 3.956-3.9567h22.751c1.979 0 3.957 1.6486 3.957 3.9567v-8.2431c0-1.6486-1.649-3.2972-3.297-3.2972z" fill="#bdbec0"/><g stroke="#211d3d" stroke-linecap="round" stroke-linejoin="round" stroke-miterlimit="10" stroke-width="2.5"><path d="m276.383 69.906h-30.664v-36.9291c0-1.9783 1.319-3.2972 3.297-3.2972h24.07c1.978 0 3.297 1.3189 3.297 3.2972z"/><path d="m260.886 63.9755c5.281 0 9.562-4.281 9.562-9.562 0-5.2809-4.281-9.5619-9.562-9.5619s-9.562 4.281-9.562 9.5619c0 5.281 4.281 9.562 9.562 9.562z" fill="#c0dceb"/><path d="m253.305 37.2695h15.167"/><path d="m260.887 44.8516v19.1239"/><path d="m270.448 54.4102h-19.124"/><path d="m215.058 148.046c0-10.551-8.573-19.124-19.124-19.124h-85.728c-10.5512 0-19.124 8.573-19.124 19.124h10.221c.99-5.276 4.946-8.903 10.552-8.903h82.43c5.606 0 9.233 3.957 10.222 8.903z" fill="#debb7e"/></g><path d="m292.223 79.4581h-48.469c-1.979 0-3.957-1.6486-3.957-3.9567v-1.9783c0-1.9783 1.649-3.9567 3.957-3.9567h48.469" fill="#fff"/><path d="m292.223 79.4581h-48.469c-1.979 0-3.957-1.6486-3.957-3.9567v-1.9783c0-1.9783 1.649-3.9567 3.957-3.9567h48.469" stroke="#211d3d" stroke-linecap="round" stroke-linejoin="round" stroke-miterlimit="10" stroke-width="2.5"/><path d="m28.1016 69.906h30.6643v-36.9291c0-1.9783-1.3189-3.2972-3.2973-3.2972h-24.0698c-1.9783 0-3.2972 1.3189-3.2972 3.2972z" fill="#87898c"/><path d="m31.3988 29.6797h24.0698c1.9784 0 3.2973 1.3189 3.2973 3.2972v8.2431c0-1.9783-1.6487-3.9567-3.9567-3.9567h-22.751c-1.9783 0-3.9566 1.6486-3.9566 3.9567v-8.2431c0-1.6486 1.6486-3.2972 3.2972-3.2972z" fill="#bdbec0"/><g stroke="#211d3d" stroke-linecap="round" stroke-linejoin="round" stroke-miterlimit="10" stroke-width="2.5"><path d="m28.1016 69.906h30.6643v-36.9291c0-1.9783-1.3189-3.2972-3.2973-3.2972h-24.0698c-1.9783 0-3.2972 1.3189-3.2972 3.2972z"/><path d="m43.269 63.9755c5.281 0 9.562-4.281 9.562-9.562 0-5.2809-4.281-9.5619-9.562-9.5619-5.2809 0-9.562 4.281-9.562 9.5619 0 5.281 4.2811 9.562 9.562 9.562z" fill="#c0dceb"/><path d="m51.1845 37.2695h-15.497"/><path d="m43.2734 44.8516v19.1239"/><path d="m34.0352 54.4102h18.7942"/></g><path d="m12.2812 79.4581h48.4694c1.9784 0 3.9567-1.6486 3.9567-3.9567v-1.9783c0-1.9783-1.6486-3.9567-3.9567-3.9567h-48.4694" fill="#fff"/><path d="m12.2812 79.4581h48.4694c1.9784 0 3.9567-1.6486 3.9567-3.9567v-1.9783c0-1.9783-1.6486-3.9567-3.9567-3.9567h-48.4694" stroke="#211d3d" stroke-linecap="round" stroke-linejoin="round" stroke-miterlimit="10" stroke-width="2.5"/><path d="m270.451 148.046h-34.291c0-7.254 5.935-13.519 13.519-13.519h7.583c7.254.33 13.189 6.265 13.189 13.519z" style="fill:#fff;stroke:#211d3d;stroke-width:2.5;stroke-miterlimit:10;stroke-linecap:round;stroke-linejoin:round"/><path d="m48.2181 148.046h27.367l3.627-10.881c.3297-1.319-.6595-2.638-1.6486-2.638h-30.994c-1.3189 0-2.3081 1.319-1.6487 2.638z" fill="#f0d5a8"/><path d="m45.91 140.462h.6595 31.3237.6594l1.3189-3.297c.3298-1.319-.6594-2.638-1.6486-2.638h-31.6534c-1.3189 0-2.3081 1.319-1.6487 2.638z" fill="#f7e5c6"/><path d="m48.2181 148.046h27.367l3.627-10.881c.3297-1.319-.6595-2.638-1.6486-2.638h-30.994c-1.3189 0-2.3081 1.319-1.6487 2.638z" stroke="#211d3d" stroke-linecap="round" stroke-linejoin="round" stroke-miterlimit="10" stroke-width="2.5"/><path d="m70.9848 117.762c0 8.902-3.9567 16.156-8.9026 16.156-4.9458 0-8.9025-7.254-8.9025-16.156 0-6.595 4.9458-12.53 7.5836-14.838.6595-.659 1.9784-.659 2.6378 0 2.6378 2.308 7.5837 8.243 7.5837 14.838z" style="fill:#9ceb60;stroke:#211d3d;stroke-width:2.5;stroke-miterlimit:10;stroke-linecap:round;stroke-linejoin:round"/><path d="m62.0725 134.86-10.8808-25.389c-.3298-.659-.9892-1.319-1.6487-1.319-.6594 0-1.3189.33-1.6486 1.319l-1.6486 4.287c-2.9675 6.924.6594 15.167 7.5836 17.805z" fill="#9ceb60"/><path d="m62.0725 133.919-10.8808-25.389c-.3298-.66-.9892-1.319-1.6487-1.319-.6594 0-1.3189.33-1.6486 1.319l-1.6486 4.286c-2.9675 6.924.6594 15.168 7.5836 17.805z" stroke="#211d3d" stroke-linecap="round" stroke-linejoin="round" stroke-miterlimit="10" stroke-width="2.5"/><path d="m62.082 133.919 10.8809-25.389c.3297-.66.9892-1.319 1.6486-1.319.6595 0 1.3189.33 1.6486 1.319l1.6487 4.286c2.9675 6.924-.6595 15.168-7.5837 17.805z" style="fill:#9ceb60;stroke:#211d3d;stroke-width:2.5;stroke-miterlimit:10;stroke-linecap:round;stroke-linejoin:round"/><path d="m224.626 8.89746v89.68484c0 4.2867-3.298 7.5837-7.584 7.5837h-125.9545c-4.2864 0-7.5836-3.297-7.5836-7.5837v-89.68484c0-4.2864 3.2972-7.58364 7.5836-7.58364h125.9545c4.286-.329722 7.584 3.29724 7.584 7.58364z" fill="#00b8f0"/><path d="m169.562.984375-86.0581 86.057825v-78.14446c0-4.28641 3.2972-7.58364 7.5836-7.58364h78.4745z" fill="#4acfff"/><path d="m224.626 8.89746v89.68484c0 4.2867-3.298 7.5837-7.584 7.5837h-125.9545c-4.2864 0-7.5836-3.297-7.5836-7.5837v-89.68484c0-4.2864 3.2972-7.58364 7.5836-7.58364h125.9545c4.286-.329722 7.584 3.29724 7.584 7.58364z" stroke="#211d3d" stroke-linecap="round" stroke-linejoin="round" stroke-miterlimit="10" stroke-width="2.5"/><path d="m224.626 87.0547v11.5403c0 4.286-3.298 7.584-7.584 7.584h-125.9545c-4.2864 0-7.5836-3.298-7.5836-7.584v-11.5403z" style="fill:#f0f0f0;stroke:#211d3d;stroke-width:2.5;stroke-miterlimit:10;stroke-linecap:round;stroke-linejoin:round"/><path d="m152.097 100.558c2.186 0 3.957-1.7716 3.957-3.9568s-1.771-3.9567-3.957-3.9567c-2.185 0-3.956 1.7715-3.956 3.9567s1.771 3.9568 3.956 3.9568z" fill="#211d3d"/><path d="m163.614 106.152h-22.751v13.519h22.751z" fill="#c0dceb"/><path d="m163.614 106.152h-22.751v5.606h22.751z" fill="#adc4d9"/><path d="m163.614 106.152h-22.751v13.519h22.751z" stroke="#211d3d" stroke-linecap="round" stroke-linejoin="round" stroke-miterlimit="10" stroke-width="2.5"/><path d="m182.757 128.914h-60.999c0-5.276 4.286-9.562 9.562-9.562h41.875c5.275 0 9.562 4.286 9.562 9.562z" style="fill:#e8f4fa;stroke:#211d3d;stroke-width:2.5;stroke-miterlimit:10;stroke-linecap:round;stroke-linejoin:round"/><path d="m263.857 219.25h13.848l-29.345-34.621h-13.848z" fill="#f7e5c6"/><path d="m277.705 219.25-29.345-34.621h-13.848l29.345 34.621" stroke="#211d3d" stroke-linecap="round" stroke-linejoin="round" stroke-miterlimit="10" stroke-width="2.5"/><path d="m40.6375 219.25h-13.8484l29.3454-34.621h13.8483z" fill="#f7e5c6"/><path d="m26.7891 219.25 29.3454-34.621h13.8483l-29.3453 34.621" stroke="#211d3d" stroke-linecap="round" stroke-linejoin="round" stroke-miterlimit="10" stroke-width="2.5"/></svg>